<svg id="Camada_2" data-name="Camada 2" xmlns="http://www.w3.org/2000/svg" viewBox="0 0 343.84 228">
  <defs>
    <style>
      .cls-1 {
        fill: #fff;
      }

      .cls-2 {
        fill: #f5a205;
      }
    </style>
  </defs>
  <g id="Camada_1-2" data-name="Camada 1">
    <g>
      <g>
        <path class="cls-1" d="M95.79,96.46l16.38-1.44c1.48-5.73,2.33-11.98,2.6-18.71-8.66-6.66-14.83-16.41-14.83-31.58,0-5.97,1.18-11.53,3.35-16.55-11.18-15.22-31.07-23.39-62.3-23.39H0v133.07h40.99c29.84,0,49.33-7.62,60.76-21.56-2.47-4.61-4.23-9.74-5.19-15.35l-.77-4.5ZM42.64,105.15h-5.51V37.33h5.15c28.3,0,34.92,11.76,34.92,33.82s-6.62,34-34.55,34Z"></path>
        <path class="cls-1" d="M197.92,120.73l-3.14-3.12,10.33-10.39,5.05-5.08.02-.02c.07-.97.12-1.94.12-2.94,0-.04,0-.07,0-.11-.11-47.96-69.98-32.64-69.98-55.41,0-.03,0-.06,0-.1.06-6.63,5.83-10.57,15-10.57,10.13,0,16.46,4.16,19.35,12.66l33.82-3.25c0-.07-.02-.14-.03-.2-.12-.83-.27-1.64-.43-2.45l-6.08-6.12-7.18-7.22,1.9-1.89,2.91-2.89c-9.4-11.24-25.31-16.84-45.53-16.84-23.68,0-42.02,10.55-47.9,27.76-1.3,3.79-2,7.9-2.01,12.3,0,.03,0,.06,0,.09,0,11.97,4.29,20.2,10.72,26.13,19.21,17.69,57.59,14.86,58.35,29.7,0,.02,0,.03,0,.05.18,6.87-6.15,11.21-16.28,11.21-11.39,0-18.45-5.06-21.16-14.65l-24.95,2.19-10.1.88h-.04c.75,4.41,2.03,8.46,3.78,12.16,8.34,17.68,27.52,27.08,52.64,27.08,19.43,0,34.77-5.87,43.88-15.89l-.1-.1-2.99-2.98Z"></path>
        <g>
          <polygon class="cls-1" points="301.88 75.05 298.91 78.03 278.39 98.67 275.43 101.65 317.22 143.73 343.84 117.29 301.88 75.05"></polygon>
          <path class="cls-1" d="M205.55,31.3l6.38,6.42,14.74,14.84c1.17-.85,2.42-1.58,3.74-2.2,2.97-1.39,6.28-2.17,9.78-2.17,6.51,0,12.4,2.71,16.61,7.05l9.74-9.8,2.97-2.98L227.34,0l-22.11,21.97-3.02,3-.08.08-1.4,1.39,4.67,4.7.17.17Z"></path>
          <path class="cls-1" d="M295.95,75.05l2.97-2.98,2.97-2.98,41.95-42.18-.16-.16L317.23.45l-41.78,42.02-2.97,2.98-2.97,2.98-10.05,10.11c.81,1.22,1.51,2.51,2.08,3.87,1.15,2.75,1.79,5.76,1.79,8.92,0,3.55-.81,6.91-2.24,9.92-.63,1.32-1.38,2.56-2.23,3.73-.83,1.14-1.77,2.19-2.79,3.16-4.15,3.92-9.74,6.33-15.88,6.33-3.11,0-6.08-.62-8.8-1.74-1.37-.56-2.67-1.25-3.89-2.06l-13.29,13.37-5.24,5.27-.07.07-8.02,8.06-.16.16,2.85,2.84.09.09,2.89,2.88,20.77,20.65,42.17-42.4,2.97-2.98,2.97-2.98,20.52-20.63Z"></path>
          <path class="cls-2" d="M255.95,61.76c-.7-1.15-1.52-2.22-2.45-3.19-3.36-3.5-8.08-5.7-13.31-5.7-2.18,0-4.26.4-6.2,1.1-1.41.5-2.74,1.16-3.97,1.97-1.18.78-2.25,1.7-3.22,2.72-3.13,3.31-5.07,7.76-5.07,12.67,0,5.27,2.23,10.01,5.77,13.38.97.92,2.05,1.74,3.2,2.43.06.04.13.08.19.12,1.29.76,2.68,1.37,4.15,1.79,1.63.48,3.36.74,5.14.74,4.86,0,9.28-1.9,12.58-4.98,1.03-.96,1.96-2.03,2.75-3.2.82-1.22,1.48-2.55,2-3.96.72-1.98,1.14-4.1,1.14-6.32,0-1.82-.28-3.58-.77-5.24-.43-1.47-1.05-2.85-1.82-4.14-.04-.07-.08-.13-.12-.19Z"></path>
        </g>
      </g>
      <g>
        <path class="cls-1" d="M2.91,164.36h8.14c11.52,0,16,4.87,16,14.23s-4.48,14.23-16,14.23H2.91v-28.46ZM11.28,187.28c7.15,0,9.47-2.79,9.47-8.73s-2.32-8.73-9.51-8.73h-2.12v17.45h2.16Z"></path>
        <path class="cls-1" d="M31.84,164.36h6.21v28.46h-6.21v-28.46Z"></path>
        <path class="cls-1" d="M42.92,178.51c0-8.69,5.46-14.58,13.52-14.58,6.29,0,10.42,2.44,12.19,7.66l-6.13,1.14c-1.06-2.4-3.03-3.5-5.97-3.5-4.44,0-7.35,3.66-7.35,9.35s2.87,9.32,7.43,9.32c3.89,0,6.49-2.24,6.72-6.52h-6.8v-4.8h13.17c.08.87.08,1.65.08,2.44,0,8.77-5.11,14.11-13.44,14.11s-13.4-5.74-13.4-14.62Z"></path>
        <path class="cls-1" d="M74.6,164.36h6.21v28.46h-6.21v-28.46Z"></path>
        <path class="cls-1" d="M91.89,169.91h-6.96v-5.54h20.05v5.54h-6.88v22.92h-6.21v-22.92Z"></path>
        <path class="cls-1" d="M126.28,187.87h-12.19l-1.81,4.95h-6.52l11.28-28.46h6.29l11.32,28.46h-6.56l-1.81-4.95ZM124.63,183.31l-4.44-12.19-4.44,12.19h8.88Z"></path>
        <path class="cls-1" d="M137.16,164.36h6.21v22.92h10.53v5.54h-16.74v-28.46Z"></path>
        <path class="cls-1" d="M166.64,185.12l5.94-.79c.86,2.56,3.03,3.93,6.09,3.93s4.91-1.26,4.87-3.38c-.08-5.58-15.88-1.93-15.88-12.62,0-4.99,4.25-8.33,10.34-8.33s10.34,2.63,11.44,7.7l-5.7.79c-.9-2.28-2.71-3.46-5.54-3.46s-4.48,1.22-4.48,3.18c0,6.05,16.08,1.73,16.08,12.54,0,5.15-4.36,8.53-11.08,8.53-6.29,0-10.85-2.91-12.07-8.1Z"></path>
        <path class="cls-1" d="M193.48,179.61v-15.25h6.21v15.21c0,5.7,1.77,8.06,5.86,8.06s5.82-2.36,5.82-8.02v-15.25h6.25v15.29c0,9.2-4.05,13.56-12.07,13.56s-12.07-4.32-12.07-13.6Z"></path>
        <path class="cls-1" d="M225.87,164.36h7.55l6.6,21.97,6.6-21.97h7.59l4.6,28.46h-6.29l-3.22-20.28-6.25,20.28h-6.01l-6.29-20.28-3.22,20.28h-6.25l4.6-28.46Z"></path>
        <path class="cls-1" d="M265.6,164.36h7.55l6.6,21.97,6.6-21.97h7.59l4.6,28.46h-6.29l-3.22-20.28-6.25,20.28h-6.01l-6.29-20.28-3.22,20.28h-6.25l4.6-28.46Z"></path>
        <path class="cls-1" d="M302.54,164.36h6.21v28.46h-6.21v-28.46Z"></path>
        <path class="cls-1" d="M319.84,169.91h-6.96v-5.54h20.05v5.54h-6.88v22.92h-6.21v-22.92Z"></path>
        <path class="cls-1" d="M2.91,199.07h18.83v5.54h-12.62v6.13h11.91v4.83h-11.91v6.41h12.62v5.54H2.91v-28.46Z"></path>
        <path class="cls-2" d="M33.61,212.48l-9.35-13.4h7.43l5.39,8.18,5.42-8.18h7.43l-9.35,13.36,10.34,15.09h-7.31l-6.52-9.91-6.52,9.91h-7.31l10.38-15.05Z"></path>
        <path class="cls-1" d="M53.37,199.07h8.21c9.94,0,13.76,3.07,13.76,10.53s-3.81,10.42-13.6,10.42h-2.16v7.51h-6.21v-28.46ZM62.69,214.56c4.4,0,6.33-1.42,6.33-5.07s-1.93-5.03-6.33-5.03h-3.1v10.1h3.1Z"></path>
        <path class="cls-1" d="M79.51,199.07h18.83v5.54h-12.62v6.13h11.91v4.83h-11.91v6.41h12.62v5.54h-18.83v-28.46Z"></path>
        <path class="cls-1" d="M118.97,227.53l-4.99-9.12c-.51.04-1.02.04-1.53.04h-2.99v9.08h-6.25v-28.46h9.2c9.16,0,12.89,3.07,12.89,9.55,0,4.09-1.81,7.08-5.58,8.65l6.29,10.26h-7.04ZM112.72,213.77c4.36,0,6.33-1.18,6.33-4.72s-1.96-4.76-6.33-4.76h-3.3v9.47h3.3Z"></path>
        <path class="cls-1" d="M130.17,199.07h6.21v28.46h-6.21v-28.46Z"></path>
        <path class="cls-1" d="M142.23,199.07h18.83v5.54h-12.62v6.13h11.91v4.83h-11.91v6.41h12.62v5.54h-18.83v-28.46Z"></path>
        <path class="cls-1" d="M165.93,199.07h6.09l12.22,18.71v-18.71h6.21v28.46h-6.05l-12.26-18.79v18.79h-6.21v-28.46Z"></path>
        <path class="cls-1" d="M195.29,213.38c0-10.1,6.68-14.66,13.6-14.66,5.31,0,11.16,2.63,12.81,10.18l-6.09,1.06c-.98-3.77-3.66-5.54-6.76-5.54-4.25,0-7.15,3.38-7.15,8.96s2.87,8.92,7.15,8.92c3.14,0,5.86-1.81,6.76-5.7l6.13,1.06c-1.61,7.67-7.51,10.34-12.85,10.34-6.92,0-13.6-4.25-13.6-14.62Z"></path>
        <path class="cls-1" d="M226.18,199.07h18.83v5.54h-12.62v6.13h11.91v4.83h-11.91v6.41h12.62v5.54h-18.83v-28.46Z"></path>
      </g>
    </g>
  </g>
</svg>